<svg width="91" height="28" viewBox="0 0 91 28" fill="none" xmlns="http://www.w3.org/2000/svg">
<g clip-path="url(#clip0_23_86)">
<path d="M21.9755 10.4124C21.4282 9.00594 20.7776 7.67354 20.0392 6.45958C19.2957 5.23576 18.485 4.1501 17.6227 3.23717C16.7501 2.30943 15.8259 1.56921 14.8758 1.03625C13.8896 0.483553 12.8827 0.202271 11.8862 0.202271C10.8896 0.202271 9.87761 0.488488 8.88624 1.04612C7.931 1.58401 7.00675 2.32917 6.13414 3.26184C5.27185 4.17971 4.46119 5.2703 3.71766 6.50893C2.97929 7.73769 2.32354 9.07996 1.77105 10.4913C1.21857 11.9027 0.779676 13.4028 0.469871 14.9376C0.160066 16.4772 0 18.0267 0 19.5466C0 22.1226 0.475034 24.1015 1.41994 25.4339C2.40615 26.8304 3.88805 27.541 5.82949 27.541C6.53172 27.541 7.18747 27.4472 7.78643 27.2597C8.39055 27.0722 8.92238 26.8008 9.36127 26.4554C9.81049 26.105 10.1616 25.6757 10.4094 25.1822C10.6573 24.6838 10.7864 24.136 10.7864 23.5438C10.7864 23.1885 10.7451 22.8283 10.6573 22.4779C10.5798 22.1572 10.4972 21.8463 10.4094 21.5452C10.3217 21.2541 10.2442 20.9728 10.1719 20.7014C10.11 20.4744 10.079 20.2622 10.079 20.0697C10.079 19.8921 10.11 19.7292 10.1771 19.5812C10.2442 19.4282 10.3268 19.3048 10.4353 19.1963C10.5385 19.0926 10.6624 19.0137 10.8122 18.9495C10.9619 18.8903 11.1168 18.8607 11.2924 18.8607C11.5144 18.8607 11.7106 18.9051 11.8862 18.994C12.0669 19.0828 12.2166 19.216 12.3457 19.3838C12.4851 19.5713 12.5987 19.8033 12.6865 20.0796C12.7743 20.3609 12.8156 20.6718 12.8156 21.0123C12.8156 21.2343 12.8053 21.4762 12.7794 21.7377C12.7485 22.0288 12.7381 22.3496 12.7381 22.6802C12.7381 23.455 12.8517 24.1656 13.0738 24.7923C13.301 25.4339 13.6366 25.9915 14.0651 26.4405C14.504 26.8995 15.041 27.2548 15.6606 27.4917C16.2751 27.7285 16.967 27.847 17.7208 27.847C18.6916 27.847 19.5642 27.6496 20.3232 27.2597C21.0771 26.8699 21.7225 26.2974 22.2337 25.5622C22.7293 24.8466 23.1114 23.9485 23.3696 22.9072C23.6226 21.8857 23.7465 20.7014 23.7465 19.3937C23.7465 17.8836 23.5865 16.3489 23.2767 14.8241C22.9669 13.3091 22.5331 11.8237 21.9858 10.4173L21.9755 10.4124ZM13.2442 12.3517C13.1461 12.5886 13.017 12.786 12.8414 12.9538C12.6659 13.1216 12.4542 13.2499 12.2063 13.3486C11.9533 13.4472 11.6745 13.4966 11.3698 13.4966C10.6315 13.4966 9.87761 13.2844 9.87761 11.7201C9.87761 11.3055 9.92924 10.9058 10.0377 10.5357C10.1409 10.1656 10.2855 9.83992 10.4611 9.55863C10.6315 9.29215 10.8174 9.07996 11.0239 8.93191C11.184 8.81348 11.344 8.75426 11.5144 8.75426C11.69 8.75426 11.8759 8.81841 12.0721 8.95165C12.3096 9.10957 12.5213 9.32176 12.7123 9.58331C12.9085 9.85966 13.0738 10.1755 13.2028 10.5259C13.3268 10.8664 13.3887 11.2069 13.3887 11.5474C13.3887 11.8385 13.3371 12.1099 13.239 12.3517H13.2442Z" fill="#6F4BFF"/>
<path d="M44.7565 2.89179C44.3796 1.98872 43.8684 1.31265 43.2436 0.883326C42.6085 0.449064 41.8392 0.231934 40.9665 0.231934C40.254 0.231934 39.6034 0.384912 39.0303 0.680999C38.4674 0.977087 37.9924 1.38667 37.6155 1.90483C37.254 2.40324 36.9752 3.00529 36.7842 3.68135C36.5983 4.34261 36.5053 5.07296 36.5053 5.84279C36.5053 6.40042 36.5415 6.96792 36.6138 7.54036C36.6861 8.09799 36.7584 8.67536 36.841 9.26753C36.9236 9.85477 36.9907 10.4667 37.0578 11.1033C37.1198 11.7251 37.1508 12.3962 37.1508 13.0969C37.1508 13.8964 37.0837 14.6415 36.9494 15.3176C36.8203 15.9838 36.6344 16.5562 36.4021 17.03C36.1852 17.4741 35.927 17.8195 35.6327 18.0613C35.3849 18.2686 35.1267 18.3673 34.8479 18.3673C34.5897 18.3673 34.347 18.2785 34.1199 18.1008C33.8514 17.8935 33.6138 17.5827 33.4073 17.1879C33.1853 16.7684 33.0149 16.2601 32.891 15.6828C32.7619 15.0955 32.6999 14.4392 32.6999 13.7335C32.6999 13.0673 32.7412 12.4011 32.8187 11.7497C32.9013 11.0786 32.9839 10.4173 33.0768 9.76101C33.1698 9.09975 33.2576 8.45329 33.335 7.82657C33.4176 7.18012 33.4589 6.54353 33.4589 5.92668C33.4589 5.10751 33.3505 4.34755 33.1388 3.66655C32.9219 2.98061 32.6121 2.37363 32.2197 1.87522C31.817 1.362 31.3316 0.962282 30.7791 0.676065C30.2163 0.389847 29.5967 0.246738 28.9409 0.246738C27.1802 0.246738 25.9049 1.33733 25.151 3.4889C24.4643 5.45788 24.1132 8.42862 24.1132 12.3172C24.1132 14.2221 24.1803 15.9295 24.3197 17.3951C24.4539 18.8805 24.6915 20.1981 25.0168 21.3084C25.3472 22.4385 25.7861 23.4106 26.3179 24.2002C26.8653 25.0046 27.5468 25.6658 28.3523 26.1593C29.1475 26.6479 30.0872 27.0081 31.1457 27.2203C32.1732 27.4276 33.3608 27.5312 34.6723 27.5312C36.6757 27.5312 38.4107 27.2302 39.8203 26.638C41.2609 26.031 42.4433 25.0342 43.3262 23.6722C44.1885 22.3447 44.8184 20.6027 45.2005 18.4907C45.5775 16.418 45.7685 13.852 45.7685 10.8615C45.7685 9.03066 45.6859 7.4466 45.531 6.15368C45.3709 4.83609 45.1076 3.74057 44.7513 2.88685L44.7565 2.89179Z" fill="#6F4BFF"/>
<path d="M64.6408 19.6207C64.0831 19.0335 63.4738 18.4907 62.8284 18.012C62.1933 17.5333 61.5943 17.1139 61.0522 16.7635C60.6959 16.5315 60.3809 16.3292 60.1073 16.1466C60.4171 16.1417 60.763 16.1269 61.1451 16.1022C61.6098 16.0726 62.0849 15.9937 62.5651 15.8604C63.0504 15.7272 63.5306 15.5249 63.9902 15.2584C64.4755 14.982 64.9092 14.5971 65.2862 14.1184C65.6579 13.6447 65.9574 13.0476 66.1794 12.3419C66.3963 11.6461 66.5099 10.7973 66.5099 9.8153C66.5099 8.36447 66.2569 7.02221 65.7612 5.82305C65.2604 4.61896 64.5426 3.57279 63.6236 2.7092C62.7096 1.85055 61.5943 1.17448 60.3138 0.705675C59.0384 0.23687 57.6082 0 56.0643 0C54.3191 0 52.8062 0.330631 51.5567 0.982023C50.2916 1.63835 49.2538 2.6944 48.4638 4.11068C47.6944 5.48749 47.1316 7.28375 46.7805 9.45012C46.4397 11.582 46.2642 14.1875 46.2642 17.1928C46.2642 19.1272 46.3364 20.7656 46.4862 22.0634C46.6359 23.3958 46.8993 24.4864 47.271 25.3105C47.6686 26.1889 48.2108 26.8255 48.882 27.2104C49.5429 27.5855 50.3587 27.7779 51.3191 27.7779C52.7184 27.7779 53.7718 27.3881 54.443 26.6281C55.0988 25.883 55.4189 24.7726 55.4189 23.2429C55.4189 22.0437 55.6564 21.5108 55.8888 21.5108C56.0437 21.5108 56.1986 21.5749 56.3741 21.7032C56.591 21.871 56.7924 22.0931 56.9679 22.3694C57.1538 22.6606 57.3087 22.9961 57.4275 23.3712C57.5462 23.7363 57.603 24.1114 57.603 24.4766C57.603 25.5721 58.0006 26.4455 58.7803 27.0723C59.5341 27.6792 60.5771 27.9901 61.8783 27.9901C62.5805 27.9901 63.226 27.8964 63.8043 27.7187C64.3929 27.5312 64.9092 27.2598 65.3326 26.9045C65.7612 26.5442 66.0968 26.105 66.3292 25.6017C66.5564 25.0983 66.6751 24.5407 66.6751 23.9337C66.6751 23.0998 66.4738 22.3053 66.071 21.57C65.6889 20.8692 65.2087 20.2129 64.6408 19.6158V19.6207ZM58.0626 10.0226C57.9748 10.2989 57.8509 10.5358 57.696 10.7381C57.5462 10.9306 57.3758 11.0786 57.1796 11.1872C57.0041 11.2859 56.8182 11.3303 56.6168 11.3303C56.2812 11.3303 56.0437 11.2118 55.8578 10.9454C55.6306 10.6295 55.517 10.1706 55.517 9.57843C55.517 9.21325 55.5635 8.87769 55.6512 8.57667C55.739 8.28058 55.8578 8.01904 56.0024 7.8019C56.1366 7.59958 56.2915 7.45153 56.4722 7.34297C56.6323 7.24427 56.7975 7.19986 56.9731 7.19986C57.1331 7.19986 57.2726 7.2344 57.4016 7.30843C57.5514 7.39232 57.6805 7.51075 57.7889 7.66866C57.9128 7.83645 58.0109 8.04371 58.0884 8.28551C58.1658 8.52732 58.202 8.80367 58.202 9.09975C58.202 9.42545 58.1555 9.73634 58.0626 10.0176V10.0226Z" fill="#6F4BFF"/>
<path d="M90.5301 14.8191C90.2203 13.3041 89.7814 11.8188 89.2393 10.4124C88.692 9.00594 88.0414 7.67848 87.303 6.45958C86.5595 5.23576 85.7488 4.1501 84.8865 3.23717C84.0139 2.30943 83.0897 1.56921 82.1396 1.03625C81.1534 0.483553 80.1465 0.202271 79.15 0.202271C78.1534 0.202271 77.1414 0.488488 76.15 1.04612C75.1948 1.58401 74.2705 2.32916 73.3979 3.26184C72.5356 4.17971 71.725 5.2703 70.9814 6.50893C70.2431 7.73769 69.5873 9.07502 69.0348 10.4913C68.4824 11.9076 68.0435 13.4028 67.7337 14.9376C67.4239 16.4772 67.2638 18.0267 67.2638 19.5466C67.2638 22.1226 67.7388 24.1015 68.6837 25.4339C69.6699 26.8304 71.1518 27.541 73.0933 27.541C73.7955 27.541 74.4513 27.4472 75.0502 27.2597C75.6543 27.0722 76.1862 26.8008 76.6251 26.4554C77.0743 26.105 77.4254 25.6757 77.6732 25.1822C77.9211 24.6838 78.0502 24.136 78.0502 23.5438C78.0502 23.1885 78.0089 22.8283 77.9211 22.4779C77.8436 22.1572 77.761 21.8413 77.6732 21.5403C77.5855 21.2491 77.508 20.9679 77.4357 20.7014C77.3738 20.4744 77.3428 20.2622 77.3428 20.0697C77.3428 19.8921 77.3738 19.7292 77.4357 19.5812C77.5028 19.4282 77.5855 19.3048 77.6939 19.1963C77.7972 19.0926 77.9211 19.0137 78.0708 18.9495C78.2206 18.8903 78.3755 18.8607 78.551 18.8607C78.773 18.8607 78.9692 18.9051 79.1448 18.994C79.3255 19.0877 79.4753 19.2111 79.6043 19.3838C79.7438 19.5713 79.8574 19.8033 79.9451 20.0747C80.0329 20.356 80.0742 20.6668 80.0742 21.0073C80.0742 21.2294 80.0587 21.4712 80.0381 21.7328C80.0123 22.0239 79.9968 22.3397 79.9968 22.6753C79.9968 23.4501 80.1104 24.1607 80.3324 24.7874C80.5596 25.4289 80.8952 25.9865 81.3238 26.4356C81.7627 26.8945 82.2996 27.2499 82.9193 27.4867C83.5337 27.7236 84.2256 27.842 84.9795 27.842C85.9502 27.842 86.8228 27.6446 87.5818 27.2548C88.3357 26.8649 88.9759 26.2925 89.4923 25.5572C89.988 24.8367 90.3701 23.9435 90.6282 22.9023C90.8812 21.8808 91.0052 20.6965 91.0052 19.3887C91.0052 17.8787 90.8451 16.339 90.5353 14.8191H90.5301ZM80.5028 12.3517C80.4047 12.5886 80.2756 12.786 80.1 12.9538C79.9245 13.1216 79.7179 13.2499 79.4649 13.3486C79.2119 13.4472 78.9331 13.4966 78.6285 13.4966C77.8901 13.4966 77.1414 13.2844 77.1414 11.7201C77.1414 11.3055 77.193 10.9058 77.3015 10.5357C77.4047 10.1656 77.5493 9.83992 77.73 9.55863C77.8953 9.29215 78.0863 9.07996 78.2877 8.93191C78.4477 8.81348 78.6078 8.75426 78.7782 8.75426C78.9538 8.75426 79.1396 8.81841 79.3358 8.95165C79.5734 9.10957 79.7851 9.32176 79.9761 9.58331C80.1723 9.85965 80.3376 10.1755 80.4666 10.5259C80.5906 10.8664 80.6525 11.2118 80.6525 11.5523C80.6525 11.8434 80.6009 12.1149 80.5028 12.3567V12.3517Z" fill="#6F4BFF"/>
</g>
<defs>
<clipPath id="clip0_23_86">
<rect width="91" height="28" fill="white"/>
</clipPath>
</defs>
</svg>
