<svg width="140" height="140" viewBox="0 0 140 140" fill="none" xmlns="http://www.w3.org/2000/svg">
<circle cx="70" cy="70" r="70" fill="#ECE7F6"/>
<path d="M90.3999 63.73C87.0099 63.73 83.9799 65.38 82.0899 67.9C80.1999 65.38 77.1699 63.73 73.7799 63.73C68.0499 63.73 63.3999 68.41 63.3999 74.17C63.3999 76.39 63.7599 78.46 64.3599 80.35C67.2999 89.68 76.4199 95.29 80.9199 96.82C81.5499 97.03 82.5999 97.03 83.2299 96.82C87.7299 95.29 96.8499 89.71 99.7899 80.35C100.42 78.43 100.75 76.39 100.75 74.17C100.78 68.41 96.1299 63.73 90.3999 63.73Z" fill="#6F4BFF"/>
<path d="M96.25 59.0201C96.25 59.71 95.56 60.16 94.9 59.98C90.85 58.93 86.41 59.8 83.05 62.2C82.39 62.68 81.49 62.68 80.86 62.2C78.49 60.46 75.61 59.5 72.58 59.5C64.84 59.5 58.54 65.8301 58.54 73.6301C58.54 82.09 62.59 88.42 66.67 92.65C66.88 92.86 66.7 93.2201 66.43 93.1001C58.24 90.3101 40 78.73 40 59.0201C40 50.32 46.99 43.3 55.63 43.3C60.76 43.3 65.29 45.76 68.14 49.57C71.02 45.76 75.55 43.3 80.65 43.3C89.26 43.3 96.25 50.32 96.25 59.0201Z" fill="#6F4BFF"/>
</svg>
