<svg width="140" height="140" viewBox="0 0 140 140" fill="none" xmlns="http://www.w3.org/2000/svg">
<circle cx="70" cy="70" r="70" fill="#ECE7F6"/>
<path d="M95.0803 72.1902C93.9703 72.1902 93.0403 71.3502 92.9203 70.2402C92.2003 63.6402 88.6603 57.7002 83.2003 53.9202C82.2103 53.2302 81.9703 51.8802 82.6603 50.8902C83.3503 49.9002 84.7003 49.6602 85.6903 50.3502C92.2003 54.8802 96.4003 61.9602 97.2703 69.7902C97.3903 70.9902 96.5203 72.0702 95.3203 72.1902C95.2303 72.1902 95.1703 72.1902 95.0803 72.1902Z" fill="#6F4BFF"/>
<path d="M45.2201 72.3399C45.1601 72.3399 45.0701 72.3399 45.0101 72.3399C43.8101 72.2199 42.9401 71.1399 43.0601 69.9399C43.8701 62.1099 48.0101 55.0299 54.4601 50.4699C55.4201 49.7799 56.8001 50.0199 57.4901 50.9799C58.1801 51.9699 57.9401 53.3199 56.9801 54.0099C51.5801 57.8499 48.0701 63.7899 47.4101 70.3599C47.2901 71.4999 46.3301 72.3399 45.2201 72.3399Z" fill="#6F4BFF"/>
<path d="M81.9703 97.3003C78.2803 99.0703 74.3203 99.9703 70.1803 99.9703C65.8603 99.9703 61.7503 99.0103 57.9103 97.0603C56.8303 96.5503 56.4103 95.2303 56.9503 94.1503C57.4603 93.0703 58.7803 92.6503 59.8603 93.1603C61.7503 94.1203 63.7603 94.7803 65.8003 95.1703C68.5603 95.7103 71.3803 95.7403 74.1403 95.2603C76.1803 94.9003 78.1903 94.2703 80.0503 93.3703C81.1603 92.8603 82.4803 93.2803 82.9603 94.3903C83.5003 95.4703 83.0803 96.7903 81.9703 97.3003Z" fill="#6F4BFF"/>
<path d="M70.1499 40.03C65.4999 40.03 61.6899 43.81 61.6899 48.49C61.6899 53.17 65.4699 56.95 70.1499 56.95C74.8299 56.95 78.6099 53.17 78.6099 48.49C78.6099 43.81 74.8299 40.03 70.1499 40.03Z" fill="#6F4BFF"/>
<path d="M49.1499 75.6104C44.4999 75.6104 40.6899 79.3904 40.6899 84.0704C40.6899 88.7504 44.4699 92.5304 49.1499 92.5304C53.8299 92.5304 57.6099 88.7504 57.6099 84.0704C57.6099 79.3904 53.7999 75.6104 49.1499 75.6104Z" fill="#6F4BFF"/>
<path d="M90.8497 75.6104C86.1997 75.6104 82.3896 79.3904 82.3896 84.0704C82.3896 88.7504 86.1697 92.5304 90.8497 92.5304C95.5297 92.5304 99.3097 88.7504 99.3097 84.0704C99.3097 79.3904 95.5297 75.6104 90.8497 75.6104Z" fill="#6F4BFF"/>
</svg>
