<svg width="98" height="98" viewBox="0 0 98 98" fill="none" xmlns="http://www.w3.org/2000/svg">
<g filter="url(#filter0_d_98_309)">
<g filter="url(#filter1_d_98_309)">
<circle cx="49" cy="45" r="39" fill="#B196FF"/>
</g>
<g filter="url(#filter2_d_98_309)">
<circle cx="49.0001" cy="45.0001" r="22.2857" fill="#B196FF"/>
</g>
<g filter="url(#filter3_d_98_309)">
<path d="M39.6384 43.572C39.4206 43.0123 39.1617 42.4821 38.8679 41.9989C38.572 41.5119 38.2494 41.0799 37.9062 40.7166C37.5589 40.3474 37.1911 40.0528 36.813 39.8407C36.4206 39.6207 36.0199 39.5088 35.6233 39.5088C35.2267 39.5088 34.824 39.6227 34.4294 39.8446C34.0493 40.0587 33.6815 40.3552 33.3342 40.7264C32.991 41.0916 32.6684 41.5257 32.3725 42.0186C32.0787 42.5076 31.8177 43.0417 31.5979 43.6034C31.378 44.1651 31.2033 44.7621 31.0801 45.3728C30.9568 45.9855 30.8931 46.6022 30.8931 47.2071C30.8931 48.2322 31.0821 49.0197 31.4581 49.5499C31.8506 50.1057 32.4404 50.3885 33.213 50.3885C33.4924 50.3885 33.7534 50.3512 33.9917 50.2766C34.2322 50.2019 34.4438 50.0939 34.6185 49.9564C34.7972 49.817 34.937 49.6462 35.0356 49.4498C35.1342 49.2514 35.1856 49.0334 35.1856 48.7978C35.1856 48.6564 35.1692 48.513 35.1342 48.3736C35.1034 48.2459 35.0705 48.1222 35.0356 48.0024C35.0007 47.8866 34.9698 47.7746 34.9411 47.6666C34.9164 47.5763 34.9041 47.4918 34.9041 47.4152C34.9041 47.3445 34.9164 47.2797 34.9431 47.2208C34.9698 47.1599 35.0027 47.1108 35.0459 47.0676C35.087 47.0264 35.1363 46.995 35.1959 46.9694C35.2555 46.9459 35.3171 46.9341 35.387 46.9341C35.4753 46.9341 35.5534 46.9518 35.6233 46.9871C35.6952 47.0225 35.7548 47.0755 35.8062 47.1423C35.8616 47.2169 35.9068 47.3092 35.9418 47.4192C35.9767 47.5311 35.9931 47.6548 35.9931 47.7903C35.9931 47.8787 35.989 47.9749 35.9788 48.079C35.9664 48.1949 35.9623 48.3225 35.9623 48.4541C35.9623 48.7624 36.0075 49.0452 36.0959 49.2946C36.1863 49.5499 36.3199 49.7718 36.4904 49.9506C36.6651 50.1332 36.8788 50.2746 37.1254 50.3689C37.3699 50.4631 37.6452 50.5102 37.9452 50.5102C38.3315 50.5102 38.6788 50.4317 38.9809 50.2766C39.2809 50.1214 39.5377 49.8936 39.7412 49.601C39.9384 49.3162 40.0905 48.9588 40.1932 48.5444C40.2939 48.1379 40.3432 47.6666 40.3432 47.1462C40.3432 46.5452 40.2795 45.9345 40.1562 45.3277C40.0329 44.7248 39.8603 44.1336 39.6425 43.5739L39.6384 43.572ZM36.1637 44.3438C36.1247 44.438 36.0733 44.5166 36.0034 44.5834C35.9336 44.6501 35.8493 44.7012 35.7507 44.7405C35.65 44.7797 35.539 44.7994 35.4178 44.7994C35.124 44.7994 34.824 44.7149 34.824 44.0924C34.824 43.9274 34.8445 43.7684 34.8877 43.6211C34.9287 43.4738 34.9863 43.3442 35.0561 43.2322C35.124 43.1262 35.1979 43.0417 35.2801 42.9828C35.3438 42.9357 35.4075 42.9121 35.4753 42.9121C35.5452 42.9121 35.6192 42.9377 35.6973 42.9907C35.7918 43.0535 35.876 43.138 35.9521 43.2421C36.0301 43.352 36.0959 43.4777 36.1473 43.6172C36.1966 43.7527 36.2212 43.8882 36.2212 44.0237C36.2212 44.1395 36.2007 44.2475 36.1616 44.3438H36.1637Z" fill="#B9A2FF"/>
<path d="M48.7045 40.5795C48.5545 40.2201 48.351 39.9511 48.1024 39.7802C47.8497 39.6074 47.5435 39.521 47.1962 39.521C46.9126 39.521 46.6537 39.5819 46.4257 39.6997C46.2017 39.8175 46.0126 39.9805 45.8626 40.1867C45.7188 40.3851 45.6078 40.6247 45.5318 40.8937C45.4578 41.1569 45.4208 41.4475 45.4208 41.7539C45.4208 41.9758 45.4352 42.2016 45.464 42.4295C45.4928 42.6514 45.5215 42.8811 45.5544 43.1168C45.5873 43.3505 45.614 43.594 45.6407 43.8473C45.6654 44.0948 45.6777 44.3619 45.6777 44.6407C45.6777 44.9589 45.651 45.2554 45.5976 45.5245C45.5462 45.7896 45.4722 46.0174 45.3797 46.2059C45.2934 46.3827 45.1907 46.5201 45.0736 46.6164C44.9749 46.6988 44.8722 46.7381 44.7612 46.7381C44.6585 46.7381 44.5619 46.7028 44.4715 46.6321C44.3647 46.5496 44.2701 46.4259 44.1879 46.2688C44.0996 46.1018 44.0318 45.8996 43.9825 45.6698C43.9311 45.4361 43.9064 45.1749 43.9064 44.8941C43.9064 44.629 43.9229 44.3638 43.9537 44.1046C43.9866 43.8375 44.0195 43.5744 44.0564 43.3132C44.0934 43.05 44.1284 42.7928 44.1592 42.5434C44.1921 42.2861 44.2085 42.0328 44.2085 41.7873C44.2085 41.4613 44.1653 41.1588 44.0811 40.8878C43.9948 40.6149 43.8715 40.3733 43.7153 40.175C43.5551 39.9707 43.3619 39.8116 43.142 39.6977C42.9181 39.5838 42.6715 39.5269 42.4105 39.5269C41.7098 39.5269 41.2023 39.9609 40.9023 40.8171C40.629 41.6007 40.4893 42.7829 40.4893 44.3305C40.4893 45.0885 40.516 45.768 40.5715 46.3512C40.6249 46.9424 40.7194 47.4667 40.8489 47.9086C40.9804 48.3583 41.155 48.7452 41.3667 49.0594C41.5845 49.3795 41.8557 49.6427 42.1763 49.839C42.4927 50.0335 42.8667 50.1768 43.2879 50.2613C43.6968 50.3437 44.1695 50.385 44.6914 50.385C45.4887 50.385 46.1791 50.2652 46.74 50.0295C47.3133 49.788 47.7839 49.3913 48.1353 48.8493C48.4784 48.321 48.7291 47.6277 48.8812 46.7872C49.0312 45.9624 49.1072 44.9412 49.1072 43.7511C49.1072 43.0225 49.0743 42.3921 49.0127 41.8776C48.949 41.3533 48.8442 40.9173 48.7024 40.5775L48.7045 40.5795Z" fill="#B9A2FF"/>
<path d="M56.6178 47.237C56.3959 47.0033 56.1534 46.7872 55.8966 46.5967C55.6438 46.4063 55.4055 46.2393 55.1897 46.0999C55.0479 46.0076 54.9226 45.9271 54.8137 45.8544C54.937 45.8524 55.0746 45.8466 55.2267 45.8367C55.4116 45.825 55.6007 45.7935 55.7918 45.7405C55.9849 45.6875 56.176 45.607 56.3589 45.5009C56.5521 45.3909 56.7247 45.2378 56.8747 45.0473C57.0226 44.8587 57.1418 44.6211 57.2302 44.3403C57.3165 44.0634 57.3617 43.7256 57.3617 43.3348C57.3617 42.7574 57.261 42.2233 57.0637 41.746C56.8644 41.2669 56.5788 40.8505 56.213 40.5069C55.8493 40.1652 55.4055 39.8961 54.8959 39.7095C54.3883 39.523 53.8191 39.4287 53.2048 39.4287C52.5102 39.4287 51.9082 39.5603 51.4109 39.8195C50.9075 40.0807 50.4944 40.501 50.18 41.0646C49.8739 41.6125 49.6499 42.3273 49.5102 43.1895C49.3746 44.0379 49.3047 45.0748 49.3047 46.2707C49.3047 47.0406 49.3335 47.6926 49.393 48.2091C49.4526 48.7393 49.5574 49.1733 49.7054 49.5013C49.8636 49.8508 50.0794 50.1042 50.3465 50.2574C50.6095 50.4066 50.9342 50.4832 51.3164 50.4832C51.8732 50.4832 52.2924 50.3281 52.5595 50.0256C52.8205 49.7291 52.9479 49.2872 52.9479 48.6784C52.9479 48.2012 53.0424 47.9891 53.1349 47.9891C53.1965 47.9891 53.2582 48.0146 53.328 48.0657C53.4143 48.1325 53.4945 48.2208 53.5643 48.3308C53.6383 48.4467 53.7 48.5802 53.7472 48.7295C53.7945 48.8748 53.8171 49.0241 53.8171 49.1694C53.8171 49.6054 53.9753 49.953 54.2856 50.2024C54.5856 50.4439 55.0007 50.5676 55.5185 50.5676C55.7979 50.5676 56.0548 50.5303 56.2849 50.4596C56.5192 50.385 56.7247 50.277 56.8932 50.1356C57.0637 49.9922 57.1973 49.8175 57.2898 49.6171C57.3802 49.4168 57.4274 49.1949 57.4274 48.9534C57.4274 48.6215 57.3473 48.3053 57.187 48.0127C57.035 47.7338 56.8439 47.4726 56.6178 47.235V47.237ZM54 43.4173C53.965 43.5273 53.9157 43.6215 53.8541 43.702C53.7945 43.7786 53.7267 43.8375 53.6486 43.8807C53.5787 43.92 53.5048 43.9377 53.4246 43.9377C53.2911 43.9377 53.1965 43.8906 53.1226 43.7845C53.0321 43.6588 52.9869 43.4762 52.9869 43.2405C52.9869 43.0952 53.0054 42.9617 53.0404 42.8419C53.0753 42.724 53.1226 42.62 53.1801 42.5336C53.2335 42.453 53.2952 42.3941 53.3671 42.3509C53.4308 42.3116 53.4965 42.294 53.5664 42.294C53.6301 42.294 53.6856 42.3077 53.737 42.3372C53.7965 42.3706 53.8479 42.4177 53.8911 42.4805C53.9404 42.5473 53.9794 42.6298 54.0102 42.726C54.0411 42.8222 54.0554 42.9322 54.0554 43.05C54.0554 43.1797 54.037 43.3034 54 43.4153V43.4173Z" fill="#B9A2FF"/>
<path d="M66.9197 45.3257C66.7964 44.7228 66.6217 44.1317 66.406 43.572C66.1882 43.0123 65.9293 42.484 65.6354 41.9989C65.3395 41.5119 65.0169 41.0799 64.6738 40.7166C64.3265 40.3474 63.9587 40.0528 63.5806 39.8407C63.1881 39.6207 62.7874 39.5088 62.3909 39.5088C61.9943 39.5088 61.5915 39.6227 61.197 39.8446C60.8169 40.0587 60.449 40.3552 60.1018 40.7264C59.7586 41.0916 59.436 41.5257 59.1401 42.0186C58.8463 42.5076 58.5853 43.0398 58.3654 43.6034C58.1456 44.167 57.9709 44.7621 57.8476 45.3728C57.7243 45.9855 57.6606 46.6022 57.6606 47.2071C57.6606 48.2322 57.8497 49.0197 58.2257 49.5499C58.6182 50.1057 59.2079 50.3885 59.9805 50.3885C60.26 50.3885 60.521 50.3512 60.7593 50.2766C60.9997 50.2019 61.2114 50.0939 61.386 49.9564C61.5648 49.817 61.7045 49.6462 61.8032 49.4498C61.9018 49.2514 61.9532 49.0334 61.9532 48.7978C61.9532 48.6564 61.9367 48.513 61.9018 48.3736C61.871 48.2459 61.8381 48.1202 61.8032 48.0005C61.7682 47.8846 61.7374 47.7726 61.7087 47.6666C61.684 47.5763 61.6717 47.4918 61.6717 47.4152C61.6717 47.3445 61.684 47.2797 61.7087 47.2208C61.7354 47.1599 61.7682 47.1108 61.8114 47.0676C61.8525 47.0264 61.9018 46.995 61.9614 46.9694C62.021 46.9459 62.0826 46.9341 62.1525 46.9341C62.2409 46.9341 62.3189 46.9518 62.3888 46.9871C62.4607 47.0244 62.5203 47.0735 62.5717 47.1423C62.6272 47.2169 62.6724 47.3092 62.7073 47.4172C62.7422 47.5291 62.7587 47.6529 62.7587 47.7884C62.7587 47.8767 62.7525 47.973 62.7443 48.077C62.734 48.1929 62.7278 48.3186 62.7278 48.4521C62.7278 48.7605 62.7731 49.0433 62.8614 49.2927C62.9518 49.548 63.0854 49.7699 63.2559 49.9486C63.4306 50.1312 63.6443 50.2726 63.8909 50.3669C64.1354 50.4612 64.4108 50.5083 64.7108 50.5083C65.0971 50.5083 65.4443 50.4297 65.7464 50.2746C66.0464 50.1194 66.3012 49.8916 66.5067 49.599C66.7039 49.3123 66.856 48.9568 66.9587 48.5425C67.0594 48.136 67.1087 47.6646 67.1087 47.1442C67.1087 46.5433 67.045 45.9306 66.9218 45.3257H66.9197ZM62.9292 44.3438C62.8902 44.438 62.8388 44.5166 62.7689 44.5834C62.6991 44.6501 62.6169 44.7012 62.5162 44.7405C62.4155 44.7797 62.3046 44.7994 62.1833 44.7994C61.8895 44.7994 61.5915 44.7149 61.5915 44.0924C61.5915 43.9274 61.6121 43.7684 61.6552 43.6211C61.6963 43.4738 61.7539 43.3442 61.8258 43.2322C61.8915 43.1262 61.9676 43.0417 62.0477 42.9828C62.1114 42.9357 62.1751 42.9121 62.2429 42.9121C62.3128 42.9121 62.3867 42.9377 62.4648 42.9907C62.5594 43.0535 62.6436 43.138 62.7196 43.2421C62.7977 43.352 62.8635 43.4777 62.9148 43.6172C62.9642 43.7527 62.9888 43.8901 62.9888 44.0256C62.9888 44.1415 62.9683 44.2495 62.9292 44.3457V44.3438Z" fill="#B9A2FF"/>
</g>
</g>
<defs>
<filter id="filter0_d_98_309" x="0" y="0" width="98" height="98" filterUnits="userSpaceOnUse" color-interpolation-filters="sRGB">
<feFlood flood-opacity="0" result="BackgroundImageFix"/>
<feColorMatrix in="SourceAlpha" type="matrix" values="0 0 0 0 0 0 0 0 0 0 0 0 0 0 0 0 0 0 127 0" result="hardAlpha"/>
<feOffset dy="4"/>
<feGaussianBlur stdDeviation="5"/>
<feComposite in2="hardAlpha" operator="out"/>
<feColorMatrix type="matrix" values="0 0 0 0 0 0 0 0 0 0 0 0 0 0 0 0 0 0 0.25 0"/>
<feBlend mode="normal" in2="BackgroundImageFix" result="effect1_dropShadow_98_309"/>
<feBlend mode="normal" in="SourceGraphic" in2="effect1_dropShadow_98_309" result="shape"/>
</filter>
<filter id="filter1_d_98_309" x="6" y="2" width="86" height="86" filterUnits="userSpaceOnUse" color-interpolation-filters="sRGB">
<feFlood flood-opacity="0" result="BackgroundImageFix"/>
<feColorMatrix in="SourceAlpha" type="matrix" values="0 0 0 0 0 0 0 0 0 0 0 0 0 0 0 0 0 0 127 0" result="hardAlpha"/>
<feOffset/>
<feGaussianBlur stdDeviation="2"/>
<feComposite in2="hardAlpha" operator="out"/>
<feColorMatrix type="matrix" values="0 0 0 0 0 0 0 0 0 0 0 0 0 0 0 0 0 0 0.05 0"/>
<feBlend mode="normal" in2="BackgroundImageFix" result="effect1_dropShadow_98_309"/>
<feBlend mode="normal" in="SourceGraphic" in2="effect1_dropShadow_98_309" result="shape"/>
</filter>
<filter id="filter2_d_98_309" x="18.7144" y="18.7144" width="56.5713" height="56.5713" filterUnits="userSpaceOnUse" color-interpolation-filters="sRGB">
<feFlood flood-opacity="0" result="BackgroundImageFix"/>
<feColorMatrix in="SourceAlpha" type="matrix" values="0 0 0 0 0 0 0 0 0 0 0 0 0 0 0 0 0 0 127 0" result="hardAlpha"/>
<feOffset dx="-2" dy="2"/>
<feGaussianBlur stdDeviation="3"/>
<feComposite in2="hardAlpha" operator="out"/>
<feColorMatrix type="matrix" values="0 0 0 0 0.486402 0 0 0 0 0.342777 0 0 0 0 0.901318 0 0 0 1 0"/>
<feBlend mode="normal" in2="BackgroundImageFix" result="effect1_dropShadow_98_309"/>
<feBlend mode="normal" in="SourceGraphic" in2="effect1_dropShadow_98_309" result="shape"/>
</filter>
<filter id="filter3_d_98_309" x="29.8931" y="38.4287" width="38.2158" height="13.1392" filterUnits="userSpaceOnUse" color-interpolation-filters="sRGB">
<feFlood flood-opacity="0" result="BackgroundImageFix"/>
<feColorMatrix in="SourceAlpha" type="matrix" values="0 0 0 0 0 0 0 0 0 0 0 0 0 0 0 0 0 0 127 0" result="hardAlpha"/>
<feOffset/>
<feGaussianBlur stdDeviation="0.5"/>
<feComposite in2="hardAlpha" operator="out"/>
<feColorMatrix type="matrix" values="0 0 0 0 0 0 0 0 0 0 0 0 0 0 0 0 0 0 0.05 0"/>
<feBlend mode="normal" in2="BackgroundImageFix" result="effect1_dropShadow_98_309"/>
<feBlend mode="normal" in="SourceGraphic" in2="effect1_dropShadow_98_309" result="shape"/>
</filter>
</defs>
</svg>
