<svg width="140" height="140" viewBox="0 0 140 140" fill="none" xmlns="http://www.w3.org/2000/svg">
<circle cx="70" cy="70" r="70" fill="#ECE7F6"/>
<path d="M97.1201 73.8399L94.3601 71.1399L71.1101 94.3599L73.9001 97.1499C76.2401 99.4899 78.6701 100.66 81.0701 100.66C83.4701 100.66 85.9001 99.4899 88.2401 97.1499L97.1201 88.2699C101.89 83.4699 101.89 78.6399 97.1201 73.8399Z" fill="#6F4BFF"/>
<path d="M66.07 42.7901C61.36 38.0801 56.41 38.0801 51.7 42.7901L42.79 51.6701C38.11 56.3801 38.11 61.3301 42.79 66.0401L45.55 68.8001L68.8 45.5501L66.07 42.7901Z" fill="#6F4BFF"/>
<path d="M99.43 45.82C95.5 55.63 86.53 68.44 77.98 76.81C76.75 69.07 70.57 63.01 62.77 61.93C71.17 53.35 84.07 44.26 93.91 40.3C95.65 39.64 97.39 40.15 98.47 41.23C99.61 42.37 100.15 44.08 99.43 45.82Z" fill="#6F4BFF"/>
<path d="M75.3401 79.2699C74.7401 79.7799 74.1401 80.2899 73.5401 80.7699L68.1701 85.0599C68.1701 84.9699 68.1401 84.8499 68.1401 84.7299C67.7201 81.5199 66.2201 78.5499 63.7901 76.1199C61.3301 73.6599 58.2701 72.1599 54.9101 71.7399C54.8201 71.7399 54.7001 71.7099 54.6101 71.7099L58.9601 66.2199C59.3801 65.6799 59.8301 65.1699 60.3101 64.6299L62.3501 64.8999C68.8001 65.7999 73.9901 70.8699 75.0101 77.2899L75.3401 79.2699Z" fill="#6F4BFF"/>
<path d="M65.29 86.86C65.29 90.16 64.03 93.3099 61.63 95.68C59.8 97.5399 57.34 98.8 54.34 99.16L46.99 99.97C42.97 100.42 39.52 96.9699 39.97 92.92L40.78 85.54C41.5 78.97 46.99 74.77 52.81 74.65C53.38 74.62 54.01 74.65 54.61 74.71C57.16 75.04 59.62 76.21 61.69 78.25C63.7 80.26 64.84 82.63 65.17 85.12C65.23 85.72 65.29 86.29 65.29 86.86Z" fill="#6F4BFF"/>
</svg>
