<svg width="36" height="36" viewBox="0 0 36 36" fill="none" xmlns="http://www.w3.org/2000/svg">
<g filter="url(#filter0_d_59_101)">
<circle cx="18" cy="18" r="14" fill="#C7D6FE"/>
</g>
<g filter="url(#filter1_d_59_101)">
<circle cx="18" cy="18" r="8" fill="#C7D6FE"/>
</g>
<g filter="url(#filter2_d_59_101)">
<path d="M14.6394 17.4874C14.5612 17.2865 14.4682 17.0961 14.3627 16.9227C14.2565 16.7479 14.1407 16.5928 14.0175 16.4624C13.8929 16.3298 13.7608 16.2241 13.6251 16.1479C13.4842 16.069 13.3404 16.0288 13.198 16.0288C13.0557 16.0288 12.9111 16.0697 12.7695 16.1494C12.633 16.2262 12.501 16.3327 12.3763 16.4659C12.2531 16.597 12.1373 16.7528 12.0311 16.9298C11.9256 17.1053 11.8319 17.297 11.753 17.4987C11.6741 17.7003 11.6114 17.9146 11.5671 18.1338C11.5229 18.3538 11.5 18.5752 11.5 18.7923C11.5 19.1603 11.5679 19.443 11.7028 19.6333C11.8437 19.8328 12.0554 19.9343 12.3328 19.9343C12.4331 19.9343 12.5268 19.9209 12.6123 19.8942C12.6986 19.8674 12.7746 19.8286 12.8373 19.7792C12.9015 19.7292 12.9517 19.6679 12.9871 19.5974C13.0225 19.5262 13.0409 19.4479 13.0409 19.3633C13.0409 19.3126 13.035 19.2611 13.0225 19.211C13.0114 19.1652 12.9996 19.1208 12.9871 19.0778C12.9745 19.0362 12.9635 18.996 12.9531 18.9573C12.9443 18.9248 12.9399 18.8945 12.9399 18.867C12.9399 18.8416 12.9443 18.8184 12.9539 18.7972C12.9635 18.7754 12.9753 18.7577 12.9908 18.7422C13.0055 18.7274 13.0232 18.7162 13.0446 18.707C13.066 18.6985 13.0881 18.6943 13.1132 18.6943C13.1449 18.6943 13.1729 18.7006 13.198 18.7133C13.2238 18.726 13.2452 18.7451 13.2637 18.769C13.2836 18.7958 13.2998 18.8289 13.3124 18.8684C13.3249 18.9086 13.3308 18.953 13.3308 19.0017C13.3308 19.0334 13.3293 19.0679 13.3256 19.1053C13.3212 19.1469 13.3197 19.1927 13.3197 19.2399C13.3197 19.3506 13.336 19.4521 13.3677 19.5417C13.4001 19.6333 13.4481 19.713 13.5093 19.7771C13.572 19.8427 13.6487 19.8935 13.7372 19.9273C13.825 19.9611 13.9239 19.9781 14.0315 19.9781C14.1702 19.9781 14.2949 19.9499 14.4033 19.8942C14.511 19.8385 14.6032 19.7567 14.6762 19.6516C14.747 19.5494 14.8016 19.4211 14.8385 19.2724C14.8747 19.1264 14.8924 18.9573 14.8924 18.7704C14.8924 18.5547 14.8695 18.3355 14.8252 18.1176C14.781 17.9012 14.719 17.689 14.6408 17.4881L14.6394 17.4874ZM13.392 17.7644C13.378 17.7983 13.3596 17.8265 13.3345 17.8505C13.3094 17.8744 13.2792 17.8927 13.2438 17.9068C13.2076 17.9209 13.1678 17.928 13.1243 17.928C13.0188 17.928 12.9111 17.8977 12.9111 17.6742C12.9111 17.615 12.9185 17.5579 12.934 17.505C12.9487 17.4521 12.9694 17.4056 12.9944 17.3654C13.0188 17.3274 13.0453 17.297 13.0748 17.2759C13.0977 17.259 13.1206 17.2505 13.1449 17.2505C13.17 17.2505 13.1966 17.2597 13.2246 17.2787C13.2585 17.3013 13.2888 17.3316 13.316 17.369C13.3441 17.4084 13.3677 17.4536 13.3861 17.5036C13.4038 17.5522 13.4127 17.6009 13.4127 17.6495C13.4127 17.6911 13.4053 17.7299 13.3913 17.7644H13.392Z" fill="#D6E1FF"/>
<path d="M17.8939 16.4132C17.84 16.2842 17.767 16.1876 17.6777 16.1263C17.587 16.0642 17.4771 16.0332 17.3524 16.0332C17.2507 16.0332 17.1577 16.0551 17.0758 16.0974C16.9954 16.1397 16.9276 16.1982 16.8737 16.2722C16.8221 16.3434 16.7823 16.4294 16.755 16.526C16.7284 16.6204 16.7151 16.7248 16.7151 16.8348C16.7151 16.9144 16.7203 16.9955 16.7306 17.0773C16.741 17.1569 16.7513 17.2394 16.7631 17.324C16.7749 17.4079 16.7845 17.4953 16.7941 17.5863C16.8029 17.6751 16.8073 17.771 16.8073 17.8711C16.8073 17.9853 16.7978 18.0917 16.7786 18.1883C16.7601 18.2835 16.7336 18.3652 16.7004 18.4329C16.6694 18.4964 16.6325 18.5457 16.5905 18.5803C16.5551 18.6099 16.5182 18.624 16.4784 18.624C16.4415 18.624 16.4068 18.6113 16.3744 18.5859C16.336 18.5563 16.3021 18.5119 16.2726 18.4555C16.2408 18.3956 16.2165 18.3229 16.1988 18.2405C16.1804 18.1566 16.1715 18.0628 16.1715 17.962C16.1715 17.8668 16.1774 17.7717 16.1885 17.6786C16.2003 17.5827 16.2121 17.4883 16.2254 17.3945C16.2386 17.3 16.2512 17.2077 16.2622 17.1182C16.274 17.0258 16.2799 16.9349 16.2799 16.8467C16.2799 16.7297 16.2644 16.6211 16.2342 16.5239C16.2032 16.4259 16.159 16.3392 16.1029 16.268C16.0454 16.1946 15.976 16.1375 15.8971 16.0967C15.8167 16.0558 15.7282 16.0353 15.6345 16.0353C15.383 16.0353 15.2008 16.1911 15.0931 16.4985C14.995 16.7798 14.9448 17.2042 14.9448 17.7597C14.9448 18.0318 14.9544 18.2757 14.9743 18.4851C14.9935 18.6973 15.0274 18.8855 15.0739 19.0441C15.1211 19.2056 15.1838 19.3444 15.2598 19.4572C15.338 19.5722 15.4353 19.6666 15.5504 19.7371C15.664 19.8069 15.7983 19.8584 15.9495 19.8887C16.0963 19.9183 16.2659 19.9331 16.4533 19.9331C16.7395 19.9331 16.9873 19.8901 17.1887 19.8055C17.3945 19.7188 17.5634 19.5764 17.6895 19.3818C17.8127 19.1922 17.9027 18.9433 17.9573 18.6416C18.0112 18.3455 18.0384 17.9789 18.0384 17.5517C18.0384 17.2902 18.0266 17.0639 18.0045 16.8792C17.9816 16.6909 17.944 16.5344 17.8931 16.4125L17.8939 16.4132Z" fill="#D6E1FF"/>
<path d="M20.7346 18.803C20.6549 18.7191 20.5679 18.6415 20.4757 18.5731C20.385 18.5048 20.2994 18.4448 20.2219 18.3948C20.1711 18.3617 20.1261 18.3327 20.087 18.3067C20.1312 18.306 20.1806 18.3038 20.2352 18.3003C20.3016 18.2961 20.3695 18.2848 20.4381 18.2658C20.5074 18.2467 20.576 18.2178 20.6417 18.1798C20.711 18.1403 20.773 18.0853 20.8268 18.0169C20.8799 17.9492 20.9227 17.8639 20.9544 17.7631C20.9854 17.6637 21.0016 17.5425 21.0016 17.4022C21.0016 17.1949 20.9655 17.0032 20.8947 16.8319C20.8231 16.6599 20.7206 16.5104 20.5893 16.387C20.4587 16.2644 20.2994 16.1678 20.1165 16.1008C19.9343 16.0338 19.7299 16 19.5094 16C19.2601 16 19.044 16.0472 18.8654 16.1403C18.6847 16.2341 18.5365 16.3849 18.4236 16.5872C18.3137 16.7839 18.2333 17.0405 18.1831 17.35C18.1345 17.6546 18.1094 18.0268 18.1094 18.4561C18.1094 18.7325 18.1197 18.9665 18.1411 19.1519C18.1625 19.3423 18.2001 19.4981 18.2532 19.6158C18.31 19.7413 18.3875 19.8322 18.4834 19.8872C18.5778 19.9408 18.6943 19.9683 18.8315 19.9683C19.0314 19.9683 19.1819 19.9126 19.2778 19.804C19.3715 19.6976 19.4172 19.5389 19.4172 19.3204C19.4172 19.1491 19.4511 19.073 19.4843 19.073C19.5064 19.073 19.5286 19.0821 19.5537 19.1005C19.5846 19.1244 19.6134 19.1562 19.6385 19.1956C19.665 19.2372 19.6872 19.2852 19.7041 19.3387C19.7211 19.3909 19.7292 19.4445 19.7292 19.4967C19.7292 19.6532 19.786 19.7779 19.8974 19.8675C20.0051 19.9542 20.1541 19.9986 20.34 19.9986C20.4403 19.9986 20.5325 19.9852 20.6151 19.9598C20.6992 19.933 20.773 19.8943 20.8334 19.8435C20.8947 19.792 20.9426 19.7293 20.9758 19.6574C21.0083 19.5855 21.0252 19.5058 21.0252 19.4191C21.0252 19.3 20.9965 19.1865 20.9389 19.0814C20.8843 18.9813 20.8157 18.8876 20.7346 18.8023V18.803ZM19.7949 17.4318C19.7823 17.4713 19.7646 17.5051 19.7425 17.534C19.7211 17.5615 19.6968 17.5827 19.6687 17.5982C19.6436 17.6123 19.6171 17.6186 19.5883 17.6186C19.5404 17.6186 19.5064 17.6017 19.4799 17.5636C19.4474 17.5185 19.4312 17.4529 19.4312 17.3683C19.4312 17.3162 19.4378 17.2682 19.4504 17.2252C19.4629 17.1829 19.4799 17.1456 19.5005 17.1146C19.5197 17.0857 19.5419 17.0645 19.5677 17.049C19.5905 17.0349 19.6141 17.0286 19.6392 17.0286C19.6621 17.0286 19.682 17.0335 19.7004 17.0441C19.7218 17.056 19.7403 17.073 19.7558 17.0955C19.7735 17.1195 19.7875 17.1491 19.7985 17.1836C19.8096 17.2182 19.8148 17.2577 19.8148 17.3C19.8148 17.3465 19.8081 17.3909 19.7949 17.4311V17.4318Z" fill="#D6E1FF"/>
<path d="M24.4326 18.1169C24.3884 17.9005 24.3257 17.6883 24.2482 17.4874C24.1701 17.2865 24.0771 17.0968 23.9716 16.9227C23.8654 16.7479 23.7496 16.5928 23.6264 16.4624C23.5018 16.3298 23.3697 16.2241 23.234 16.1479C23.0931 16.069 22.9493 16.0288 22.8069 16.0288C22.6645 16.0288 22.52 16.0697 22.3783 16.1494C22.2419 16.2262 22.1099 16.3327 21.9852 16.4659C21.862 16.597 21.7462 16.7528 21.64 16.9298C21.5345 17.1053 21.4408 17.2963 21.3619 17.4987C21.283 17.701 21.2203 17.9146 21.176 18.1338C21.1318 18.3538 21.1089 18.5752 21.1089 18.7923C21.1089 19.1603 21.1767 19.443 21.3117 19.6333C21.4526 19.8328 21.6643 19.9343 21.9417 19.9343C22.042 19.9343 22.1357 19.9209 22.2212 19.8942C22.3075 19.8674 22.3835 19.8286 22.4462 19.7792C22.5104 19.7292 22.5605 19.6679 22.5959 19.5974C22.6314 19.5262 22.6498 19.4479 22.6498 19.3633C22.6498 19.3126 22.6439 19.2611 22.6314 19.211C22.6203 19.1652 22.6085 19.1201 22.5959 19.0771C22.5834 19.0355 22.5723 18.9953 22.562 18.9573C22.5532 18.9248 22.5487 18.8945 22.5487 18.867C22.5487 18.8416 22.5532 18.8184 22.562 18.7972C22.5716 18.7754 22.5834 18.7577 22.5989 18.7422C22.6137 18.7274 22.6314 18.7162 22.6527 18.707C22.6741 18.6985 22.6963 18.6943 22.7213 18.6943C22.7531 18.6943 22.7811 18.7006 22.8062 18.7133C22.832 18.7267 22.8534 18.7444 22.8718 18.769C22.8917 18.7958 22.908 18.8289 22.9205 18.8677C22.933 18.9079 22.9389 18.9523 22.9389 19.001C22.9389 19.0327 22.9367 19.0672 22.9338 19.1046C22.9301 19.1462 22.9279 19.1913 22.9279 19.2392C22.9279 19.3499 22.9441 19.4514 22.9758 19.541C23.0083 19.6326 23.0562 19.7123 23.1175 19.7764C23.1802 19.842 23.2569 19.8927 23.3454 19.9266C23.4332 19.9604 23.532 19.9773 23.6397 19.9773C23.7784 19.9773 23.903 19.9491 24.0115 19.8935C24.1192 19.8378 24.2106 19.756 24.2844 19.6509C24.3552 19.548 24.4098 19.4204 24.4467 19.2717C24.4828 19.1257 24.5005 18.9565 24.5005 18.7697C24.5005 18.554 24.4776 18.3341 24.4334 18.1169H24.4326ZM23.0002 17.7644C22.9862 17.7983 22.9677 17.8265 22.9426 17.8505C22.9176 17.8744 22.8881 17.8927 22.8519 17.9068C22.8158 17.9209 22.7759 17.928 22.7324 17.928C22.6269 17.928 22.52 17.8977 22.52 17.6742C22.52 17.615 22.5274 17.5579 22.5428 17.505C22.5576 17.4521 22.5782 17.4056 22.6041 17.3654C22.6277 17.3274 22.655 17.297 22.6837 17.2759C22.7066 17.259 22.7295 17.2505 22.7538 17.2505C22.7789 17.2505 22.8054 17.2597 22.8335 17.2787C22.8674 17.3013 22.8976 17.3316 22.9249 17.369C22.953 17.4084 22.9766 17.4536 22.995 17.5036C23.0127 17.5522 23.0216 17.6016 23.0216 17.6502C23.0216 17.6918 23.0142 17.7306 23.0002 17.7651V17.7644Z" fill="#D6E1FF"/>
</g>
<defs>
<filter id="filter0_d_59_101" x="0" y="0" width="36" height="36" filterUnits="userSpaceOnUse" color-interpolation-filters="sRGB">
<feFlood flood-opacity="0" result="BackgroundImageFix"/>
<feColorMatrix in="SourceAlpha" type="matrix" values="0 0 0 0 0 0 0 0 0 0 0 0 0 0 0 0 0 0 127 0" result="hardAlpha"/>
<feOffset/>
<feGaussianBlur stdDeviation="2"/>
<feComposite in2="hardAlpha" operator="out"/>
<feColorMatrix type="matrix" values="0 0 0 0 0 0 0 0 0 0 0 0 0 0 0 0 0 0 0.05 0"/>
<feBlend mode="normal" in2="BackgroundImageFix" result="effect1_dropShadow_59_101"/>
<feBlend mode="normal" in="SourceGraphic" in2="effect1_dropShadow_59_101" result="shape"/>
</filter>
<filter id="filter1_d_59_101" x="2" y="6" width="28" height="28" filterUnits="userSpaceOnUse" color-interpolation-filters="sRGB">
<feFlood flood-opacity="0" result="BackgroundImageFix"/>
<feColorMatrix in="SourceAlpha" type="matrix" values="0 0 0 0 0 0 0 0 0 0 0 0 0 0 0 0 0 0 127 0" result="hardAlpha"/>
<feOffset dx="-2" dy="2"/>
<feGaussianBlur stdDeviation="3"/>
<feComposite in2="hardAlpha" operator="out"/>
<feColorMatrix type="matrix" values="0 0 0 0 0.543301 0 0 0 0 0.658982 0 0 0 0 0.967464 0 0 0 1 0"/>
<feBlend mode="normal" in2="BackgroundImageFix" result="effect1_dropShadow_59_101"/>
<feBlend mode="normal" in="SourceGraphic" in2="effect1_dropShadow_59_101" result="shape"/>
</filter>
<filter id="filter2_d_59_101" x="10.5" y="15" width="15.0005" height="5.99854" filterUnits="userSpaceOnUse" color-interpolation-filters="sRGB">
<feFlood flood-opacity="0" result="BackgroundImageFix"/>
<feColorMatrix in="SourceAlpha" type="matrix" values="0 0 0 0 0 0 0 0 0 0 0 0 0 0 0 0 0 0 127 0" result="hardAlpha"/>
<feOffset/>
<feGaussianBlur stdDeviation="0.5"/>
<feComposite in2="hardAlpha" operator="out"/>
<feColorMatrix type="matrix" values="0 0 0 0 0 0 0 0 0 0 0 0 0 0 0 0 0 0 0.05 0"/>
<feBlend mode="normal" in2="BackgroundImageFix" result="effect1_dropShadow_59_101"/>
<feBlend mode="normal" in="SourceGraphic" in2="effect1_dropShadow_59_101" result="shape"/>
</filter>
</defs>
</svg>
