<svg width="32" height="32" viewBox="0 0 32 32" fill="none" xmlns="http://www.w3.org/2000/svg">
<path d="M29.2933 24.4398C29.2933 24.9198 29.1866 25.4132 28.96 25.8932C28.7333 26.3732 28.44 26.8265 28.0533 27.2532C27.4 27.9732 26.68 28.4932 25.8666 28.8265C25.0666 29.1598 24.2 29.3332 23.2666 29.3332C21.9066 29.3332 20.4533 29.0132 18.92 28.3598C17.3866 27.7065 15.8533 26.8265 14.3333 25.7198C12.8 24.5998 11.3466 23.3598 9.95996 21.9865C8.58663 20.5998 7.34663 19.1465 6.23996 17.6265C5.14663 16.1065 4.26663 14.5865 3.62663 13.0798C2.98663 11.5598 2.66663 10.1065 2.66663 8.71984C2.66663 7.81317 2.82663 6.9465 3.14663 6.1465C3.46663 5.33317 3.97329 4.5865 4.67996 3.91984C5.53329 3.07984 6.46663 2.6665 7.45329 2.6665C7.82663 2.6665 8.19996 2.7465 8.53329 2.9065C8.87996 3.0665 9.18663 3.3065 9.42663 3.65317L12.52 8.01317C12.76 8.3465 12.9333 8.65317 13.0533 8.9465C13.1733 9.2265 13.24 9.5065 13.24 9.75984C13.24 10.0798 13.1466 10.3998 12.96 10.7065C12.7866 11.0132 12.5333 11.3332 12.2133 11.6532L11.2 12.7065C11.0533 12.8532 10.9866 13.0265 10.9866 13.2398C10.9866 13.3465 11 13.4398 11.0266 13.5465C11.0666 13.6532 11.1066 13.7332 11.1333 13.8132C11.3733 14.2532 11.7866 14.8265 12.3733 15.5198C12.9733 16.2132 13.6133 16.9198 14.3066 17.6265C15.0266 18.3332 15.72 18.9865 16.4266 19.5865C17.12 20.1732 17.6933 20.5732 18.1466 20.8132C18.2133 20.8398 18.2933 20.8798 18.3866 20.9198C18.4933 20.9598 18.6 20.9732 18.72 20.9732C18.9466 20.9732 19.12 20.8932 19.2666 20.7465L20.28 19.7465C20.6133 19.4132 20.9333 19.1598 21.24 18.9998C21.5466 18.8132 21.8533 18.7198 22.1866 18.7198C22.44 18.7198 22.7066 18.7732 23 18.8932C23.2933 19.0132 23.6 19.1865 23.9333 19.4132L28.3466 22.5465C28.6933 22.7865 28.9333 23.0665 29.08 23.3998C29.2133 23.7332 29.2933 24.0665 29.2933 24.4398Z" fill="#6F4BFF" stroke="#6F4BFF" stroke-miterlimit="10"/>
<path d="M24.6667 12.0002C24.6667 11.2002 24.04 9.9735 23.1067 8.9735C22.2533 8.0535 21.12 7.3335 20 7.3335" stroke="#6F4BFF" stroke-width="1.5" stroke-linecap="round" stroke-linejoin="round"/>
<path d="M29.3333 11.9998C29.3333 6.83984 25.16 2.6665 20 2.6665" stroke="#6F4BFF" stroke-width="1.5" stroke-linecap="round" stroke-linejoin="round"/>
</svg>
