<svg width="32" height="32" viewBox="0 0 32 32" fill="none" xmlns="http://www.w3.org/2000/svg">
<path d="M8.00004 17.3335C4.32004 17.3335 1.33337 20.3068 1.33337 24.0002C1.33337 27.6935 4.32004 30.6668 8.00004 30.6668C11.68 30.6668 14.6667 27.6802 14.6667 24.0002C14.6667 20.3202 11.6934 17.3335 8.00004 17.3335ZM5.28004 21.2802H8.00004C8.50671 21.2802 8.90671 21.6935 8.90671 22.1868C8.90671 22.6802 8.50671 23.0935 8.00004 23.0935H5.28004C4.77337 23.0935 4.37337 22.6802 4.37337 22.1868C4.37337 21.6935 4.77337 21.2802 5.28004 21.2802ZM10.72 26.7202H5.28004C4.77337 26.7202 4.37337 26.3068 4.37337 25.8135C4.37337 25.3202 4.78671 24.9068 5.28004 24.9068H10.7334C11.24 24.9068 11.64 25.3202 11.64 25.8135C11.64 26.3068 11.2267 26.7202 10.72 26.7202Z" fill="#6F4BFF"/>
<path d="M22.6666 4H9.33329C5.33329 4 2.66663 6 2.66663 10.6667V14.8533C2.66663 15.8267 3.66663 16.44 4.55996 16.0533C6.02663 15.4133 7.69329 15.1733 9.43996 15.4533C12.9333 16.0267 15.7866 18.7867 16.4933 22.2533C16.6933 23.2667 16.72 24.2533 16.5866 25.2C16.48 25.9867 17.12 26.68 17.9066 26.68H22.6666C26.6666 26.68 29.3333 24.68 29.3333 20.0133V10.6667C29.3333 6 26.6666 4 22.6666 4ZM23.2933 11.4533L19.12 14.7867C18.24 15.4933 17.12 15.84 16 15.84C14.88 15.84 13.7466 15.4933 12.88 14.7867L8.70663 11.4533C8.27996 11.1067 8.21329 10.4667 8.54663 10.04C8.89329 9.61333 9.51996 9.53333 9.94663 9.88L14.12 13.2133C15.1333 14.0267 16.8533 14.0267 17.8666 13.2133L22.04 9.88C22.4666 9.53333 23.1066 9.6 23.44 10.04C23.7866 10.4667 23.72 11.1067 23.2933 11.4533Z" fill="#6F4BFF"/>
</svg>
